<?xml version="1.0" encoding="UTF-8"?>
<svg width="192px" height="44px" viewBox="0 0 192 44" version="1.1" xmlns="http://www.w3.org/2000/svg" xmlns:xlink="http://www.w3.org/1999/xlink">
    <title>circles</title>
    <g id="Page-2" stroke="none" stroke-width="1" fill="none" fill-rule="evenodd">
        <g id="Desktop-HD" transform="translate(-81.000000, -59.000000)" fill="#000000" fill-rule="nonzero">
            <g id="circles" transform="translate(81.743333, 59.940000)">
                <path d="M14.64,42.96 C11.92,42.96 9.45,42.37 7.23,41.19 C5.01,40.01 3.25,38.29 1.95,36.03 C0.65,33.77 0,31 0,27.72 C0,24.48 0.71,21.71 2.13,19.41 C3.55,17.11 5.45,15.35 7.83,14.13 C10.21,12.91 12.82,12.3 15.66,12.3 C17.98,12.3 19.94,12.68 21.54,13.44 C23.14,14.2 24.36,15.19 25.2,16.41 C26.04,17.63 26.46,18.9 26.46,20.22 C26.46,21.34 26.12,22.21 25.44,22.83 C24.76,23.45 23.88,23.76 22.8,23.76 C21.64,23.76 20.7,23.34 19.98,22.5 C19.26,21.66 18.84,20.56 18.72,19.2 C18.68,18.32 18.7,17.57 18.78,16.95 C18.86,16.33 18.86,15.7 18.78,15.06 C18.62,14.38 18.37,13.93 18.03,13.71 C17.69,13.49 17.22,13.38 16.62,13.38 C14.18,13.38 12.29,14.44 10.95,16.56 C9.61,18.68 8.94,22.06 8.94,26.7 C8.94,30.74 9.69,33.83 11.19,35.97 C12.69,38.11 15,39.18 18.12,39.18 C20,39.18 21.52,38.84 22.68,38.16 C23.84,37.48 24.96,36.46 26.04,35.1 L26.64,35.58 C25.64,37.94 24.1,39.76 22.02,41.04 C19.94,42.32 17.48,42.96 14.64,42.96 Z" id="Path"></path>
                <path d="M39.9333333,9.18 C38.5733333,9.18 37.4233333,8.75 36.4833333,7.89 C35.5433333,7.03 35.0733333,5.94 35.0733333,4.62 C35.0733333,3.26 35.5433333,2.16 36.4833333,1.32 C37.4233333,0.48 38.5733333,0.06 39.9333333,0.06 C41.2933333,0.06 42.4333333,0.48 43.3533333,1.32 C44.2733333,2.16 44.7333333,3.26 44.7333333,4.62 C44.7333333,5.94 44.2733333,7.03 43.3533333,7.89 C42.4333333,8.75 41.2933333,9.18 39.9333333,9.18 Z M32.8533333,42.06 L32.8533333,41.46 L33.6933333,41.22 C34.4933333,40.98 35.0433333,40.62 35.3433333,40.14 C35.6433333,39.66 35.7933333,39.02 35.7933333,38.22 L35.7933333,19.44 C35.7933333,18.6 35.6433333,17.97 35.3433333,17.55 C35.0433333,17.13 34.4933333,16.84 33.6933333,16.68 L32.8533333,16.5 L32.8533333,15.9 L43.8333333,12.36 L44.4333333,12.96 L44.2533333,21.48 L44.2533333,38.28 C44.2533333,39.08 44.4033333,39.72 44.7033333,40.2 C45.0033333,40.68 45.5333333,41.04 46.2933333,41.28 L46.8933333,41.46 L46.8933333,42.06 L32.8533333,42.06 Z" id="Shape"></path>
                <path d="M52.8666667,42.06 L52.8666667,41.46 L53.7666667,41.22 C54.5666667,40.98 55.1166667,40.62 55.4166667,40.14 C55.7166667,39.66 55.8666667,39.04 55.8666667,38.28 L55.8666667,19.5 C55.8666667,18.62 55.7166667,17.97 55.4166667,17.55 C55.1166667,17.13 54.5666667,16.84 53.7666667,16.68 L52.8666667,16.44 L52.8666667,15.84 L63.1866667,12.36 L63.7866667,12.96 L64.3266667,18.12 L64.3266667,18.6 C64.8866667,17.48 65.6166667,16.45 66.5166667,15.51 C67.4166667,14.57 68.4166667,13.8 69.5166667,13.2 C70.6166667,12.6 71.7066667,12.3 72.7866667,12.3 C74.3066667,12.3 75.4666667,12.72 76.2666667,13.56 C77.0666667,14.4 77.4666667,15.46 77.4666667,16.74 C77.4666667,18.1 77.0766667,19.15 76.2966667,19.89 C75.5166667,20.63 74.5866667,21 73.5066667,21 C71.8266667,21 70.3466667,20.16 69.0666667,18.48 L68.9466667,18.36 C68.5466667,17.8 68.0866667,17.49 67.5666667,17.43 C67.0466667,17.37 66.5666667,17.62 66.1266667,18.18 C65.7266667,18.54 65.3966667,18.97 65.1366667,19.47 C64.8766667,19.97 64.6266667,20.54 64.3866667,21.18 L64.3866667,37.92 C64.3866667,39.52 65.0866667,40.52 66.4866667,40.92 L68.4066667,41.46 L68.4066667,42.06 L52.8666667,42.06 Z" id="Path"></path>
                <path d="M96.58,42.96 C93.86,42.96 91.39,42.37 89.17,41.19 C86.95,40.01 85.19,38.29 83.89,36.03 C82.59,33.77 81.94,31 81.94,27.72 C81.94,24.48 82.65,21.71 84.07,19.41 C85.49,17.11 87.39,15.35 89.77,14.13 C92.15,12.91 94.76,12.3 97.6,12.3 C99.92,12.3 101.88,12.68 103.48,13.44 C105.08,14.2 106.3,15.19 107.14,16.41 C107.98,17.63 108.4,18.9 108.4,20.22 C108.4,21.34 108.06,22.21 107.38,22.83 C106.7,23.45 105.82,23.76 104.74,23.76 C103.58,23.76 102.64,23.34 101.92,22.5 C101.2,21.66 100.78,20.56 100.66,19.2 C100.62,18.32 100.64,17.57 100.72,16.95 C100.8,16.33 100.8,15.7 100.72,15.06 C100.56,14.38 100.31,13.93 99.97,13.71 C99.63,13.49 99.16,13.38 98.56,13.38 C96.12,13.38 94.23,14.44 92.89,16.56 C91.55,18.68 90.88,22.06 90.88,26.7 C90.88,30.74 91.63,33.83 93.13,35.97 C94.63,38.11 96.94,39.18 100.06,39.18 C101.94,39.18 103.46,38.84 104.62,38.16 C105.78,37.48 106.9,36.46 107.98,35.1 L108.58,35.58 C107.58,37.94 106.04,39.76 103.96,41.04 C101.88,42.32 99.42,42.96 96.58,42.96 Z" id="Path"></path>
                <path d="M113.593333,42.06 L113.593333,41.46 L114.313333,41.22 C115.753333,40.74 116.473333,39.74 116.473333,38.22 L116.473333,6.12 C116.473333,5.32 116.313333,4.71 115.993333,4.29 C115.673333,3.87 115.113333,3.56 114.313333,3.36 L113.533333,3.18 L113.533333,2.58 L124.513333,0 L125.233333,0.54 L124.993333,8.94 L124.993333,29.46 C124.993333,30.94 125.003333,32.41 125.023333,33.87 C125.043333,35.33 125.053333,36.78 125.053333,38.22 C125.053333,39.02 125.213333,39.67 125.533333,40.17 C125.853333,40.67 126.393333,41.04 127.153333,41.28 L127.933333,41.46 L127.933333,42.06 L113.593333,42.06 Z" id="Path"></path>
                <path d="M148.966667,12.3 C151.566667,12.3 153.786667,12.83 155.626667,13.89 C157.466667,14.95 158.876667,16.39 159.856667,18.21 C160.836667,20.03 161.326667,22.1 161.326667,24.42 C161.326667,24.86 161.306667,25.31 161.266667,25.77 C161.226667,26.23 161.146667,26.64 161.026667,27 L143.146667,27 C143.186667,31.32 143.956667,34.43 145.456667,36.33 C146.956667,38.23 149.186667,39.18 152.146667,39.18 C154.146667,39.18 155.766667,38.86 157.006667,38.22 C158.246667,37.58 159.406667,36.64 160.486667,35.4 L161.086667,35.94 C159.846667,38.14 158.196667,39.86 156.136667,41.1 C154.076667,42.34 151.606667,42.96 148.726667,42.96 C145.886667,42.96 143.366667,42.35 141.166667,41.13 C138.966667,39.91 137.246667,38.16 136.006667,35.88 C134.766667,33.6 134.146667,30.88 134.146667,27.72 C134.146667,24.44 134.866667,21.65 136.306667,19.35 C137.746667,17.05 139.596667,15.3 141.856667,14.1 C144.116667,12.9 146.486667,12.3 148.966667,12.3 Z M148.786667,13.5 C147.626667,13.5 146.636667,13.85 145.816667,14.55 C144.996667,15.25 144.356667,16.49 143.896667,18.27 C143.436667,20.05 143.186667,22.56 143.146667,25.8 L153.406667,25.8 C153.806667,21.44 153.646667,18.3 152.926667,16.38 C152.206667,14.46 150.826667,13.5 148.786667,13.5 Z" id="Shape"></path>
                <path d="M178.04,42.96 C176.08,42.96 174.32,42.73 172.76,42.27 C171.2,41.81 169.76,41.24 168.44,40.56 L168.5,33.42 L169.1,33.42 L171.14,37.02 C172.02,38.62 172.99,39.81 174.05,40.59 C175.11,41.37 176.46,41.76 178.1,41.76 C180.02,41.76 181.57,41.33 182.75,40.47 C183.93,39.61 184.52,38.46 184.52,37.02 C184.52,35.7 184.1,34.62 183.26,33.78 C182.42,32.94 180.86,32.18 178.58,31.5 L176.06,30.72 C173.62,30 171.7,28.88 170.3,27.36 C168.9,25.84 168.2,23.98 168.2,21.78 C168.2,19.14 169.24,16.9 171.32,15.06 C173.4,13.22 176.38,12.3 180.26,12.3 C181.82,12.3 183.29,12.47 184.67,12.81 C186.05,13.15 187.38,13.66 188.66,14.34 L188.3,20.82 L187.7,20.82 L185.6,17.1 C184.84,15.78 184.09,14.85 183.35,14.31 C182.61,13.77 181.5,13.5 180.02,13.5 C178.66,13.5 177.38,13.88 176.18,14.64 C174.98,15.4 174.38,16.48 174.38,17.88 C174.38,19.24 174.89,20.32 175.91,21.12 C176.93,21.92 178.44,22.66 180.44,23.34 L183.14,24.12 C186.02,25 188.08,26.21 189.32,27.75 C190.56,29.29 191.18,31.14 191.18,33.3 C191.18,36.22 190.03,38.56 187.73,40.32 C185.43,42.08 182.2,42.96 178.04,42.96 Z" id="Path"></path>
            </g>
        </g>
    </g>
</svg>